<svg width="350" height="350" viewBox="0 0 350 350" fill="none" xmlns="http://www.w3.org/2000/svg">
<rect width="350" height="350" rx="30" fill="black"/>
<path d="M55.0827 158H43.4427V151.7H54.1827C56.2627 151.7 57.7427 151.29 58.6227 150.47C59.5027 149.63 59.9427 148.44 59.9427 146.9V146.18C59.9427 144.6 59.4927 143.4 58.5927 142.58C57.7127 141.76 56.1927 141.35 54.0327 141.35H43.3527V135.47H53.8527C55.8327 135.47 57.2427 135.06 58.0827 134.24C58.9227 133.42 59.3427 132.27 59.3427 130.79V130.4C59.3427 128.92 58.9327 127.79 58.1127 127.01C57.2927 126.23 55.8727 125.84 53.8527 125.84H43.2927V119.66H54.6627C59.1027 119.66 62.2927 120.45 64.2327 122.03C66.1727 123.61 67.1427 125.9 67.1427 128.9V129.41C67.1427 131.69 66.5727 133.46 65.4327 134.72C64.3127 135.98 62.5527 136.73 60.1527 136.97V137.27C62.8527 137.71 64.8127 138.67 66.0327 140.15C67.2727 141.63 67.8927 143.71 67.8927 146.39V147.38C67.8927 150.82 66.8727 153.45 64.8327 155.27C62.8127 157.09 59.5627 158 55.0827 158ZM45.5127 158H37.8627V119.66H45.5127V158ZM98.1951 158H90.6051L90.8751 150.8L90.6651 150.14V140.93L90.6351 139.61C90.6351 137.69 90.1051 136.28 89.0451 135.38C88.0051 134.48 86.2951 134.03 83.9151 134.03C81.8951 134.03 79.9951 134.3 78.2151 134.84C76.4551 135.36 74.8251 135.97 73.3251 136.67L73.9851 130.55C74.8651 130.09 75.8651 129.66 76.9851 129.26C78.1251 128.84 79.3951 128.5 80.7951 128.24C82.1951 127.98 83.7051 127.85 85.3251 127.85C87.7251 127.85 89.7551 128.14 91.4151 128.72C93.0751 129.28 94.3951 130.09 95.3751 131.15C96.3751 132.21 97.0951 133.48 97.5351 134.96C97.9751 136.42 98.1951 138.04 98.1951 139.82V158ZM80.9751 158.69C78.0551 158.69 75.8251 157.96 74.2851 156.5C72.7651 155.04 72.0051 152.96 72.0051 150.26V149.42C72.0051 146.56 72.8851 144.45 74.6451 143.09C76.4051 141.71 79.1951 140.76 83.0151 140.24L91.3551 139.1L91.8051 144.05L84.1251 145.16C82.4451 145.38 81.2451 145.78 80.5251 146.36C79.8251 146.94 79.4751 147.79 79.4751 148.91V149.21C79.4751 150.31 79.8151 151.17 80.4951 151.79C81.1951 152.39 82.2851 152.69 83.7651 152.69C85.0851 152.69 86.2151 152.48 87.1551 152.06C88.0951 151.64 88.8651 151.09 89.4651 150.41C90.0851 149.71 90.5251 148.93 90.7851 148.07L91.8651 151.88H90.5451C90.2251 153.14 89.7051 154.29 88.9851 155.33C88.2851 156.35 87.2951 157.17 86.0151 157.79C84.7351 158.39 83.0551 158.69 80.9751 158.69ZM116.714 158.75C112.174 158.75 108.804 157.55 106.604 155.15C104.424 152.75 103.334 149.38 103.334 145.04V141.44C103.334 137.12 104.434 133.77 106.634 131.39C108.834 129.01 112.194 127.82 116.714 127.82C117.894 127.82 118.994 127.92 120.014 128.12C121.054 128.3 121.994 128.55 122.834 128.87C123.694 129.19 124.444 129.53 125.084 129.89L125.714 136.34C124.734 135.72 123.634 135.2 122.414 134.78C121.214 134.36 119.824 134.15 118.244 134.15C115.764 134.15 113.944 134.79 112.784 136.07C111.644 137.33 111.074 139.17 111.074 141.59V144.77C111.074 147.17 111.664 149.02 112.844 150.32C114.044 151.62 115.884 152.27 118.364 152.27C119.944 152.27 121.344 152.07 122.564 151.67C123.784 151.25 124.924 150.74 125.984 150.14L125.354 156.62C124.374 157.18 123.144 157.67 121.664 158.09C120.184 158.53 118.534 158.75 116.714 158.75ZM158.887 158H149.887L140.227 145.04H137.617V140.03H140.257L149.557 128.57H158.437L146.497 143.06V141.5L158.887 158ZM138.637 158H130.987V118.34H138.637V158ZM172.326 158.72C169.966 158.72 167.866 158.49 166.026 158.03C164.206 157.59 162.656 157.09 161.376 156.53L160.686 149.87C162.206 150.57 163.876 151.18 165.696 151.7C167.536 152.22 169.556 152.48 171.756 152.48C173.676 152.48 175.066 152.24 175.926 151.76C176.786 151.26 177.216 150.52 177.216 149.54V149.36C177.216 148.7 177.016 148.16 176.616 147.74C176.236 147.32 175.556 146.94 174.576 146.6C173.596 146.24 172.216 145.86 170.436 145.46C167.976 144.88 166.026 144.21 164.586 143.45C163.166 142.67 162.146 141.72 161.526 140.6C160.906 139.46 160.596 138.1 160.596 136.52V136.25C160.596 133.47 161.586 131.38 163.566 129.98C165.546 128.56 168.476 127.85 172.356 127.85C174.656 127.85 176.686 128.08 178.446 128.54C180.226 128.98 181.706 129.51 182.886 130.13L183.576 136.25C182.176 135.59 180.606 135.04 178.866 134.6C177.126 134.14 175.256 133.91 173.256 133.91C171.956 133.91 170.926 134.02 170.166 134.24C169.426 134.44 168.896 134.73 168.576 135.11C168.256 135.49 168.096 135.95 168.096 136.49V136.64C168.096 137.24 168.266 137.76 168.606 138.2C168.966 138.64 169.616 139.04 170.556 139.4C171.496 139.74 172.816 140.11 174.516 140.51C176.996 141.03 178.986 141.64 180.486 142.34C181.986 143.04 183.076 143.94 183.756 145.04C184.436 146.12 184.776 147.54 184.776 149.3V149.66C184.776 152.7 183.746 154.97 181.686 156.47C179.626 157.97 176.506 158.72 172.326 158.72ZM200.805 158.63C198.305 158.63 196.305 158.26 194.805 157.52C193.325 156.76 192.255 155.62 191.595 154.1C190.935 152.58 190.605 150.71 190.605 148.49V131.33H198.225V147.35C198.225 148.95 198.585 150.13 199.305 150.89C200.045 151.63 201.335 152 203.175 152C204.255 152 205.295 151.89 206.295 151.67C207.295 151.43 208.215 151.12 209.055 150.74L208.395 157.16C207.395 157.62 206.245 157.98 204.945 158.24C203.665 158.5 202.285 158.63 200.805 158.63ZM208.125 134.87H186.345V128.81H208.785L208.125 134.87ZM198.015 129.38H190.695L190.665 121.58L198.315 120.8L198.015 129.38ZM238.351 158H230.761L231.031 150.8L230.821 150.14V140.93L230.791 139.61C230.791 137.69 230.261 136.28 229.201 135.38C228.161 134.48 226.451 134.03 224.071 134.03C222.051 134.03 220.151 134.3 218.371 134.84C216.611 135.36 214.981 135.97 213.481 136.67L214.141 130.55C215.021 130.09 216.021 129.66 217.141 129.26C218.281 128.84 219.551 128.5 220.951 128.24C222.351 127.98 223.861 127.85 225.481 127.85C227.881 127.85 229.911 128.14 231.571 128.72C233.231 129.28 234.551 130.09 235.531 131.15C236.531 132.21 237.251 133.48 237.691 134.96C238.131 136.42 238.351 138.04 238.351 139.82V158ZM221.131 158.69C218.211 158.69 215.981 157.96 214.441 156.5C212.921 155.04 212.161 152.96 212.161 150.26V149.42C212.161 146.56 213.041 144.45 214.801 143.09C216.561 141.71 219.351 140.76 223.171 140.24L231.511 139.1L231.961 144.05L224.281 145.16C222.601 145.38 221.401 145.78 220.681 146.36C219.981 146.94 219.631 147.79 219.631 148.91V149.21C219.631 150.31 219.971 151.17 220.651 151.79C221.351 152.39 222.441 152.69 223.921 152.69C225.241 152.69 226.371 152.48 227.311 152.06C228.251 151.64 229.021 151.09 229.621 150.41C230.241 149.71 230.681 148.93 230.941 148.07L232.021 151.88H230.701C230.381 153.14 229.861 154.29 229.141 155.33C228.441 156.35 227.451 157.17 226.171 157.79C224.891 158.39 223.211 158.69 221.131 158.69ZM256.963 148.97C252.503 148.97 249.123 148.09 246.823 146.33C244.523 144.55 243.373 142.06 243.373 138.86V138.41C243.373 136.29 243.833 134.49 244.753 133.01C245.673 131.51 247.113 130.34 249.073 129.5C251.033 128.66 253.573 128.18 256.693 128.06L272.203 127.43V133.07L264.223 132.77V133.1C265.483 133.36 266.523 133.78 267.343 134.36C268.183 134.92 268.813 135.65 269.233 136.55C269.653 137.43 269.863 138.5 269.863 139.76V140.03C269.863 142.93 268.793 145.15 266.653 146.69C264.513 148.21 261.283 148.97 256.963 148.97ZM256.603 163.61H257.443C259.003 163.61 260.293 163.5 261.313 163.28C262.333 163.08 263.093 162.76 263.593 162.32C264.113 161.9 264.373 161.35 264.373 160.67V160.58C264.373 159.74 264.043 159.12 263.383 158.72C262.743 158.34 261.703 158.08 260.263 157.94L251.653 157.1L253.423 157.01C252.683 157.15 252.023 157.36 251.443 157.64C250.883 157.9 250.443 158.25 250.123 158.69C249.803 159.13 249.643 159.67 249.643 160.31V160.37C249.643 161.11 249.903 161.72 250.423 162.2C250.943 162.7 251.723 163.06 252.763 163.28C253.803 163.5 255.083 163.61 256.603 163.61ZM257.263 169.4H256.183C253.343 169.4 250.913 169.16 248.893 168.68C246.873 168.22 245.323 167.48 244.243 166.46C243.183 165.44 242.653 164.09 242.653 162.41V162.29C242.653 161.15 242.903 160.19 243.403 159.41C243.903 158.63 244.613 158.01 245.533 157.55C246.453 157.09 247.513 156.8 248.713 156.68V156.38C247.193 156.08 246.043 155.59 245.263 154.91C244.503 154.21 244.123 153.26 244.123 152.06V152.03C244.123 151.19 244.313 150.48 244.693 149.9C245.073 149.32 245.633 148.86 246.373 148.52C247.133 148.18 248.063 147.98 249.163 147.92V147.05L255.673 148.67L253.573 148.61C252.653 148.63 252.013 148.76 251.653 149C251.293 149.22 251.113 149.54 251.113 149.96V149.99C251.113 150.51 251.393 150.89 251.953 151.13C252.513 151.35 253.443 151.54 254.743 151.7L261.793 152.48C265.093 152.86 267.523 153.67 269.083 154.91C270.663 156.15 271.453 158.06 271.453 160.64V160.79C271.453 162.77 270.893 164.39 269.773 165.65C268.653 166.93 267.033 167.87 264.913 168.47C262.813 169.09 260.263 169.4 257.263 169.4ZM256.753 143.63C258.093 143.63 259.203 143.44 260.083 143.06C260.983 142.68 261.653 142.12 262.093 141.38C262.553 140.64 262.783 139.74 262.783 138.68V138.35C262.783 137.29 262.563 136.4 262.123 135.68C261.683 134.94 261.023 134.39 260.143 134.03C259.263 133.65 258.153 133.46 256.813 133.46H256.723C255.303 133.46 254.143 133.66 253.243 134.06C252.343 134.44 251.683 135 251.263 135.74C250.843 136.46 250.633 137.33 250.633 138.35V138.68C250.633 139.74 250.853 140.64 251.293 141.38C251.753 142.12 252.433 142.68 253.333 143.06C254.253 143.44 255.393 143.63 256.753 143.63ZM289.426 158.72C284.386 158.72 280.636 157.56 278.176 155.24C275.716 152.92 274.486 149.56 274.486 145.16V141.32C274.486 136.96 275.636 133.61 277.936 131.27C280.236 128.93 283.576 127.76 287.956 127.76C290.916 127.76 293.386 128.28 295.366 129.32C297.346 130.36 298.826 131.84 299.806 133.76C300.806 135.66 301.306 137.94 301.306 140.6V141.65C301.306 142.37 301.266 143.11 301.186 143.87C301.126 144.61 301.036 145.31 300.916 145.97H293.956C294.016 144.87 294.046 143.83 294.046 142.85C294.066 141.85 294.076 140.95 294.076 140.15C294.076 138.77 293.856 137.6 293.416 136.64C292.976 135.66 292.306 134.92 291.406 134.42C290.506 133.92 289.356 133.67 287.956 133.67C285.896 133.67 284.376 134.24 283.396 135.38C282.416 136.52 281.926 138.14 281.926 140.24V142.97L281.956 143.84V146.15C281.956 147.07 282.096 147.92 282.376 148.7C282.676 149.48 283.166 150.16 283.846 150.74C284.526 151.3 285.426 151.74 286.546 152.06C287.686 152.38 289.106 152.54 290.806 152.54C292.646 152.54 294.396 152.34 296.056 151.94C297.736 151.52 299.326 150.96 300.826 150.26L300.166 156.32C298.826 157.06 297.246 157.64 295.426 158.06C293.626 158.5 291.626 158.72 289.426 158.72ZM299.356 145.97H278.566V140.87H299.356V145.97ZM98.4836 228.78C96.7036 228.78 95.0336 228.65 93.4736 228.39C91.9336 228.13 90.5336 227.81 89.2736 227.43C88.0336 227.03 86.9636 226.63 86.0636 226.23L85.3736 218.79C86.9336 219.61 88.7836 220.35 90.9236 221.01C93.0636 221.65 95.3436 221.97 97.7636 221.97C100.324 221.97 102.174 221.6 103.314 220.86C104.454 220.12 105.024 218.98 105.024 217.44V217.11C105.024 216.11 104.774 215.29 104.274 214.65C103.794 213.99 102.984 213.41 101.844 212.91C100.704 212.41 99.1536 211.9 97.1936 211.38C94.4336 210.62 92.1636 209.76 90.3836 208.8C88.6236 207.82 87.3236 206.61 86.4836 205.17C85.6436 203.71 85.2236 201.88 85.2236 199.68V199.32C85.2236 195.96 86.3536 193.38 88.6136 191.58C90.8936 189.78 94.2536 188.88 98.6936 188.88C101.454 188.88 103.824 189.13 105.804 189.63C107.784 190.13 109.444 190.71 110.784 191.37L111.474 198.3C109.974 197.5 108.254 196.84 106.314 196.32C104.394 195.78 102.294 195.51 100.014 195.51C98.3136 195.51 96.9636 195.67 95.9636 195.99C94.9836 196.31 94.2736 196.78 93.8336 197.4C93.4136 198.02 93.2036 198.77 93.2036 199.65V199.74C93.2036 200.64 93.4236 201.42 93.8636 202.08C94.3236 202.74 95.1336 203.35 96.2936 203.91C97.4536 204.45 99.1036 205.01 101.244 205.59C103.964 206.35 106.184 207.17 107.904 208.05C109.644 208.93 110.934 210.07 111.774 211.47C112.614 212.87 113.034 214.72 113.034 217.02V217.56C113.034 221.26 111.824 224.06 109.404 225.96C107.004 227.84 103.364 228.78 98.4836 228.78ZM129.35 228.63C126.85 228.63 124.85 228.26 123.35 227.52C121.87 226.76 120.8 225.62 120.14 224.1C119.48 222.58 119.15 220.71 119.15 218.49V201.33H126.77V217.35C126.77 218.95 127.13 220.13 127.85 220.89C128.59 221.63 129.88 222 131.72 222C132.8 222 133.84 221.89 134.84 221.67C135.84 221.43 136.76 221.12 137.6 220.74L136.94 227.16C135.94 227.62 134.79 227.98 133.49 228.24C132.21 228.5 130.83 228.63 129.35 228.63ZM136.67 204.87H114.89V198.81H137.33L136.67 204.87ZM126.56 199.38H119.24L119.21 191.58L126.86 190.8L126.56 199.38ZM154.285 228.81C149.725 228.81 146.265 227.64 143.905 225.3C141.565 222.96 140.395 219.63 140.395 215.31V211.32C140.395 206.98 141.565 203.64 143.905 201.3C146.265 198.94 149.725 197.76 154.285 197.76C158.825 197.76 162.265 198.94 164.605 201.3C166.945 203.64 168.115 206.98 168.115 211.32V215.31C168.115 219.63 166.945 222.96 164.605 225.3C162.285 227.64 158.845 228.81 154.285 228.81ZM154.285 222.66C156.285 222.66 157.805 222.06 158.845 220.86C159.905 219.66 160.435 217.94 160.435 215.7V210.93C160.435 208.65 159.905 206.91 158.845 205.71C157.805 204.49 156.285 203.88 154.285 203.88C152.265 203.88 150.725 204.49 149.665 205.71C148.625 206.91 148.105 208.65 148.105 210.93V215.7C148.105 217.94 148.625 219.66 149.665 220.86C150.725 222.06 152.265 222.66 154.285 222.66ZM181.201 210.9L179.251 205.77H181.111C181.651 203.39 182.631 201.52 184.051 200.16C185.471 198.8 187.441 198.12 189.961 198.12C190.481 198.12 190.951 198.16 191.371 198.24C191.791 198.3 192.171 198.38 192.511 198.48L192.931 206.16C192.491 206.02 191.981 205.92 191.401 205.86C190.821 205.78 190.211 205.74 189.571 205.74C187.531 205.74 185.791 206.19 184.351 207.09C182.931 207.99 181.881 209.26 181.201 210.9ZM181.411 228H173.731V198.57H181.051L180.721 207.6L181.411 207.87V228ZM204.733 228H197.053V198.57H204.733V228ZM200.893 195.09C199.433 195.09 198.353 194.75 197.653 194.07C196.973 193.37 196.633 192.41 196.633 191.19V191.04C196.633 189.82 196.973 188.86 197.653 188.16C198.353 187.46 199.433 187.11 200.893 187.11C202.333 187.11 203.403 187.46 204.103 188.16C204.803 188.86 205.153 189.82 205.153 191.04V191.19C205.153 192.43 204.803 193.39 204.103 194.07C203.403 194.75 202.333 195.09 200.893 195.09ZM225.295 228.72C220.255 228.72 216.505 227.56 214.045 225.24C211.585 222.92 210.355 219.56 210.355 215.16V211.32C210.355 206.96 211.505 203.61 213.805 201.27C216.105 198.93 219.445 197.76 223.825 197.76C226.785 197.76 229.255 198.28 231.235 199.32C233.215 200.36 234.695 201.84 235.675 203.76C236.675 205.66 237.175 207.94 237.175 210.6V211.65C237.175 212.37 237.135 213.11 237.055 213.87C236.995 214.61 236.905 215.31 236.785 215.97H229.825C229.885 214.87 229.915 213.83 229.915 212.85C229.935 211.85 229.945 210.95 229.945 210.15C229.945 208.77 229.725 207.6 229.285 206.64C228.845 205.66 228.175 204.92 227.275 204.42C226.375 203.92 225.225 203.67 223.825 203.67C221.765 203.67 220.245 204.24 219.265 205.38C218.285 206.52 217.795 208.14 217.795 210.24V212.97L217.825 213.84V216.15C217.825 217.07 217.965 217.92 218.245 218.7C218.545 219.48 219.035 220.16 219.715 220.74C220.395 221.3 221.295 221.74 222.415 222.06C223.555 222.38 224.975 222.54 226.675 222.54C228.515 222.54 230.265 222.34 231.925 221.94C233.605 221.52 235.195 220.96 236.695 220.26L236.035 226.32C234.695 227.06 233.115 227.64 231.295 228.06C229.495 228.5 227.495 228.72 225.295 228.72ZM235.225 215.97H214.435V210.87H235.225V215.97ZM252.805 228.72C250.445 228.72 248.345 228.49 246.505 228.03C244.685 227.59 243.135 227.09 241.855 226.53L241.165 219.87C242.685 220.57 244.355 221.18 246.175 221.7C248.015 222.22 250.035 222.48 252.235 222.48C254.155 222.48 255.545 222.24 256.405 221.76C257.265 221.26 257.695 220.52 257.695 219.54V219.36C257.695 218.7 257.495 218.16 257.095 217.74C256.715 217.32 256.035 216.94 255.055 216.6C254.075 216.24 252.695 215.86 250.915 215.46C248.455 214.88 246.505 214.21 245.065 213.45C243.645 212.67 242.625 211.72 242.005 210.6C241.385 209.46 241.075 208.1 241.075 206.52V206.25C241.075 203.47 242.065 201.38 244.045 199.98C246.025 198.56 248.955 197.85 252.835 197.85C255.135 197.85 257.165 198.08 258.925 198.54C260.705 198.98 262.185 199.51 263.365 200.13L264.055 206.25C262.655 205.59 261.085 205.04 259.345 204.6C257.605 204.14 255.735 203.91 253.735 203.91C252.435 203.91 251.405 204.02 250.645 204.24C249.905 204.44 249.375 204.73 249.055 205.11C248.735 205.49 248.575 205.95 248.575 206.49V206.64C248.575 207.24 248.745 207.76 249.085 208.2C249.445 208.64 250.095 209.04 251.035 209.4C251.975 209.74 253.295 210.11 254.995 210.51C257.475 211.03 259.465 211.64 260.965 212.34C262.465 213.04 263.555 213.94 264.235 215.04C264.915 216.12 265.255 217.54 265.255 219.3V219.66C265.255 222.7 264.225 224.97 262.165 226.47C260.105 227.97 256.985 228.72 252.805 228.72Z" fill="#ED0000"/>
</svg>
