<svg width="254" height="254" viewBox="0 0 254 254" fill="none" xmlns="http://www.w3.org/2000/svg">
<circle cx="127" cy="127" r="127" fill="black"/>
<path d="M78.4361 147.435C73.749 147.435 70.1862 145.917 67.7478 142.883C65.3094 139.849 64.0902 135.378 64.0902 129.472V123.985C64.0902 117.998 65.323 113.46 67.7885 110.371C70.254 107.282 73.9251 105.738 78.8019 105.738C81.1861 105.738 83.191 106.117 84.8166 106.876C86.4693 107.635 87.7969 108.718 88.7993 110.127C89.8289 111.536 90.5469 113.189 90.9533 115.085H94.0013L91.3597 122.807C91.3055 120.937 90.9126 119.366 90.1811 118.093C89.4767 116.792 88.4878 115.803 87.2144 115.126C85.941 114.449 84.4373 114.11 82.7033 114.11C80.0753 114.11 78.0568 114.869 76.648 116.386C75.2662 117.903 74.5753 120.165 74.5753 123.173V129.756C74.5753 132.737 75.2662 134.985 76.648 136.503C78.0568 138.02 80.1024 138.778 82.7846 138.778C84.3018 138.778 85.6565 138.494 86.8486 137.925C88.0407 137.356 89.0296 136.584 89.8153 135.608C90.6281 134.606 91.2106 133.482 91.5629 132.235L94.0419 138.047H91.1158C90.6823 139.781 89.9779 141.366 89.0025 142.802C88.0272 144.211 86.6861 145.335 84.9792 146.175C83.2723 147.015 81.0913 147.435 78.4361 147.435ZM101.601 146.5H91.1971L91.5629 136.746L91.3597 134.43V118.133L91.4003 116.467L91.1971 105.047V92.7739H101.601V146.5ZM131.363 146.5H116.204L107.588 106.632H118.236L124.088 139.104H124.82L130.753 107.648H144.164L150.138 139.104H150.829L156.763 106.632H167.289L158.673 146.5H143.555L138.678 120.125L137.784 115.207H137.174L136.28 120.125L131.363 146.5ZM183.75 146.5H173.306V92.7739H183.75V146.5Z" fill="#FFF200"/>
</svg>
