<svg width="350" height="350" viewBox="0 0 350 350" fill="none" xmlns="http://www.w3.org/2000/svg">
<rect width="350" height="350" rx="30" fill="#EB5B00"/>
<path d="M281.934 223.775H294.998V228.255H286.416V232.41H293.965V236.89H286.416V242.344H294.998V246.792H281.934V223.775Z" fill="white"/>
<path d="M270.069 242.316C271.013 242.316 271.937 242.078 272.841 241.602C273.746 241.126 274.66 240.325 275.584 239.199L278.474 242.219C277.314 243.863 275.987 245.108 274.493 245.952C273.018 246.796 271.495 247.218 269.922 247.218C268.506 247.218 267.179 246.904 265.941 246.277C264.702 245.627 263.621 244.762 262.697 243.679C261.792 242.597 261.075 241.342 260.544 239.914C260.033 238.464 259.777 236.927 259.777 235.304C259.777 233.681 260.043 232.155 260.574 230.726C261.124 229.298 261.861 228.043 262.785 226.961C263.709 225.879 264.8 225.024 266.059 224.396C267.317 223.768 268.654 223.455 270.069 223.455C271.386 223.455 272.635 223.725 273.814 224.266C275.014 224.807 276.183 225.705 277.324 226.961L274.729 230.434C273.903 229.59 273.117 229.028 272.369 228.746C271.642 228.443 270.875 228.292 270.069 228.292C269.263 228.292 268.496 228.476 267.769 228.844C267.061 229.211 266.442 229.709 265.911 230.337C265.38 230.965 264.958 231.711 264.643 232.577C264.348 233.421 264.201 234.33 264.201 235.304C264.201 236.278 264.348 237.187 264.643 238.031C264.958 238.875 265.38 239.621 265.911 240.271C266.442 240.898 267.061 241.396 267.769 241.764C268.496 242.132 269.263 242.316 270.069 242.316Z" fill="white"/>
<path d="M251.803 223.775H256.255V246.792H252.009L241.953 231.761V246.792H237.5V223.775H241.688L251.803 238.903V223.775Z" fill="white"/>
<path d="M220.453 223.775H233.517V228.255H224.936V232.41H232.485V236.89H224.936V242.344H233.517V246.792H220.453V223.775Z" fill="white"/>
<path d="M214.04 230.625C214.04 231.361 213.941 232.064 213.745 232.735C213.568 233.384 213.312 233.99 212.978 234.553C212.644 235.094 212.241 235.581 211.769 236.014C211.297 236.425 210.786 236.76 210.236 237.02L217.166 246.792H211.946L205.488 237.507H203.482V246.792H199V223.775H208.024C208.85 223.775 209.626 223.959 210.354 224.327C211.101 224.673 211.74 225.16 212.27 225.788C212.821 226.394 213.253 227.119 213.568 227.963C213.882 228.785 214.04 229.672 214.04 230.625ZM207.464 233.027C208.034 233.027 208.525 232.8 208.938 232.345C209.351 231.869 209.557 231.296 209.557 230.625C209.557 229.975 209.351 229.424 208.938 228.969C208.525 228.493 208.034 228.255 207.464 228.255H203.482V233.027H207.464Z" fill="white"/>
<path d="M181.953 223.775H195.017V228.255H186.436V232.41H193.985V236.89H186.436V242.344H195.017V246.792H181.953V223.775Z" fill="white"/>
<path d="M165.91 223.775H178.974V228.255H170.393V232.41H177.942V236.89H170.393V246.792H165.91V223.775Z" fill="white"/>
<path d="M157.494 223.775H161.947V246.792H157.7L147.644 231.761V246.792H143.191V223.775H147.379L157.494 238.903V223.775Z" fill="white"/>
<path d="M129.343 223.455C130.758 223.455 132.095 223.768 133.353 224.396C134.612 225.024 135.703 225.879 136.627 226.961C137.57 228.043 138.308 229.298 138.838 230.726C139.389 232.155 139.664 233.681 139.664 235.304C139.664 236.905 139.389 238.431 138.838 239.881C138.308 241.331 137.57 242.597 136.627 243.679C135.703 244.762 134.612 245.627 133.353 246.277C132.095 246.904 130.758 247.218 129.343 247.218C127.927 247.218 126.59 246.904 125.332 246.277C124.074 245.627 122.983 244.762 122.059 243.679C121.135 242.597 120.397 241.331 119.847 239.881C119.316 238.431 119.051 236.905 119.051 235.304C119.051 233.681 119.316 232.155 119.847 230.726C120.397 229.298 121.135 228.043 122.059 226.961C122.983 225.879 124.074 225.024 125.332 224.396C126.59 223.768 127.927 223.455 129.343 223.455ZM129.343 242.316C130.149 242.316 130.906 242.132 131.613 241.764C132.321 241.396 132.94 240.898 133.471 240.271C134.002 239.621 134.415 238.875 134.71 238.031C135.024 237.187 135.182 236.278 135.182 235.304C135.182 234.33 135.024 233.421 134.71 232.577C134.415 231.711 134.002 230.965 133.471 230.337C132.94 229.688 132.321 229.179 131.613 228.811C130.906 228.443 130.149 228.259 129.343 228.259C128.537 228.259 127.78 228.443 127.072 228.811C126.364 229.179 125.745 229.688 125.214 230.337C124.683 230.965 124.261 231.711 123.946 232.577C123.651 233.421 123.504 234.33 123.504 235.304C123.504 236.278 123.651 237.187 123.946 238.031C124.261 238.875 124.683 239.621 125.214 240.271C125.745 240.898 126.364 241.396 127.072 241.764C127.78 242.132 128.537 242.316 129.343 242.316Z" fill="white"/>
<path d="M107.628 242.316C108.572 242.316 109.496 242.078 110.4 241.602C111.304 241.126 112.218 240.325 113.142 239.199L116.032 242.219C114.872 243.863 113.545 245.108 112.051 245.952C110.577 246.796 109.053 247.218 107.48 247.218C106.065 247.218 104.738 246.904 103.499 246.277C102.261 245.627 101.179 244.762 100.255 243.679C99.3511 242.597 98.6335 241.342 98.1027 239.914C97.5915 238.464 97.3359 236.927 97.3359 235.304C97.3359 233.681 97.6013 232.155 98.1322 230.726C98.6826 229.298 99.4199 228.043 100.344 226.961C101.268 225.879 102.359 225.024 103.617 224.396C104.875 223.768 106.212 223.455 107.628 223.455C108.945 223.455 110.193 223.725 111.373 224.266C112.572 224.807 113.742 225.705 114.882 226.961L112.287 230.434C111.462 229.59 110.675 229.028 109.928 228.746C109.201 228.443 108.434 228.292 107.628 228.292C106.822 228.292 106.055 228.476 105.328 228.844C104.62 229.211 104.001 229.709 103.47 230.337C102.939 230.965 102.516 231.711 102.202 232.577C101.907 233.421 101.759 234.33 101.759 235.304C101.759 236.278 101.907 237.187 102.202 238.031C102.516 238.875 102.939 239.621 103.47 240.271C104.001 240.898 104.62 241.396 105.328 241.764C106.055 242.132 106.822 242.316 107.628 242.316Z" fill="white"/>
<path d="M89.3611 223.775H93.814V246.792H89.5675L79.5115 231.761V246.792H75.0586V223.775H79.2461L89.3611 238.903V223.775Z" fill="white"/>
<path d="M66.84 223.775H71.293V238.481C71.293 239.628 71.0767 240.732 70.6442 241.792C70.2117 242.853 69.6219 243.783 68.8748 244.584C68.1277 245.385 67.2529 246.023 66.2502 246.499C65.2672 246.976 64.2056 247.214 63.0653 247.214C61.9447 247.214 60.8831 246.976 59.8804 246.499C58.8778 246.023 58.0029 245.385 57.2559 244.584C56.5284 243.783 55.9485 242.853 55.516 241.792C55.0834 240.732 54.8672 239.628 54.8672 238.481V223.775H59.3201V237.507C59.3201 238.156 59.4184 238.773 59.615 239.357C59.8116 239.92 60.077 240.429 60.4113 240.883C60.7455 241.316 61.1387 241.662 61.5908 241.922C62.0627 242.182 62.5542 242.312 63.0653 242.312C63.5961 242.312 64.0876 242.182 64.5398 241.922C64.992 241.662 65.3852 241.316 65.7194 240.883C66.0733 240.429 66.3485 239.92 66.5451 239.357C66.7417 238.773 66.84 238.156 66.84 237.507V223.775Z" fill="white"/>
<path d="M285.182 162.935H294.769V208.819H285.627L263.977 178.855V208.819H254.391V162.935H263.406L285.182 193.093V162.935Z" fill="white"/>
<path d="M244.704 176.59C244.704 178.057 244.485 179.459 244.048 180.797C243.655 182.091 243.087 183.299 242.344 184.421C241.601 185.499 240.705 186.47 239.656 187.333C238.608 188.153 237.471 188.822 236.248 189.339L251.652 208.819H240.05L225.694 190.31H221.237V208.819H211.273V162.935H231.332C233.167 162.935 234.893 163.301 236.51 164.035C238.171 164.725 239.591 165.696 240.771 166.947C241.994 168.155 242.956 169.6 243.655 171.283C244.354 172.923 244.704 174.692 244.704 176.59ZM230.086 181.379C231.353 181.379 232.446 180.926 233.364 180.02C234.281 179.071 234.74 177.927 234.74 176.59C234.74 175.296 234.281 174.195 233.364 173.289C232.446 172.34 231.353 171.866 230.086 171.866H221.237V181.379H230.086Z" fill="white"/>
<path d="M195.274 163.594H205.03V192.252C205.03 194.488 204.557 196.639 203.609 198.705C202.661 200.772 201.369 202.585 199.732 204.146C198.096 205.706 196.179 206.951 193.982 207.878C191.829 208.806 189.503 209.27 187.004 209.27C184.549 209.27 182.223 208.806 180.027 207.878C177.83 206.951 175.913 205.706 174.276 204.146C172.683 202.585 171.412 200.772 170.464 198.705C169.517 196.639 169.043 194.488 169.043 192.252V163.594H178.799V190.354C178.799 191.62 179.014 192.822 179.445 193.96C179.876 195.057 180.457 196.048 181.19 196.934C181.922 197.777 182.783 198.452 183.774 198.958C184.808 199.464 185.885 199.717 187.004 199.717C188.167 199.717 189.244 199.464 190.235 198.958C191.226 198.452 192.087 197.777 192.819 196.934C193.595 196.048 194.198 195.057 194.628 193.96C195.059 192.822 195.274 191.62 195.274 190.354V163.594Z" fill="white"/>
<path d="M130.516 162.935H163.553V171.866H151.896V208.819H142.172V171.866H130.516V162.935Z" fill="white"/>
<path d="M97.0703 162.935H126.718V171.951H107.243V180.315H124.376V189.331H107.243V200.308H126.718V209.26H97.0703V162.935Z" fill="white"/>
<path d="M87.9193 176.724C87.9193 178.206 87.6986 179.622 87.2573 180.972C86.8602 182.279 86.2865 183.499 85.5363 184.632C84.7861 185.721 83.8814 186.702 82.8223 187.573C81.7632 188.401 80.6158 189.076 79.3802 189.599L94.9359 209.271H83.2195L68.7229 190.579H64.2217V209.271H54.1602V162.935H74.4156C76.2691 162.935 78.0122 163.305 79.645 164.046C81.3219 164.743 82.7561 165.723 83.9476 166.987C85.1832 168.206 86.1541 169.666 86.8602 171.365C87.5662 173.021 87.9193 174.807 87.9193 176.724ZM73.1579 181.56C74.4377 181.56 75.5409 181.103 76.4677 180.188C77.3944 179.23 77.8577 178.075 77.8577 176.724C77.8577 175.417 77.3944 174.306 76.4677 173.391C75.5409 172.433 74.4377 171.953 73.1579 171.953H64.2217V181.56H73.1579Z" fill="white"/>
<path d="M284.077 140.659H263.165V149.752H295V102.692H284.077V140.659Z" fill="white"/>
<path d="M246.785 102.692H257.63V149.752H247.288L222.798 119.02V149.752H211.953V102.692H222.151L246.785 133.623V102.692Z" fill="white"/>
<path d="M203.185 116.697C203.185 118.202 202.953 119.64 202.488 121.012C202.07 122.339 201.467 123.578 200.677 124.729C199.888 125.835 198.936 126.831 197.821 127.716C196.707 128.556 195.499 129.242 194.199 129.773L210.568 149.752H198.239L182.984 130.769H178.248V149.752H167.66V102.692H188.975C190.925 102.692 192.76 103.068 194.478 103.82C196.242 104.528 197.752 105.524 199.005 106.807C200.306 108.046 201.327 109.529 202.07 111.254C202.813 112.936 203.185 114.75 203.185 116.697ZM187.651 121.609C188.998 121.609 190.159 121.144 191.134 120.215C192.109 119.242 192.597 118.069 192.597 116.697C192.597 115.37 192.109 114.241 191.134 113.312C190.159 112.339 188.998 111.852 187.651 111.852H178.248V121.609H187.651Z" fill="white"/>
<path d="M131.672 102.692H160.739V111.852H141.645V120.348H158.442V129.508H141.645V140.659H160.739V149.752H131.672V102.692Z" fill="white"/>
<path d="M90.1484 102.692H127.52V111.852H114.334V149.752H103.334V111.852H90.1484V102.692Z" fill="white"/>
<path d="M54.1602 102.692H85.9952V111.852H65.0833V120.348H83.4801V129.508H65.0833V140.659H85.9952V149.752H54.1602V102.692Z" fill="white"/>
</svg>
