<svg width="350" height="350" viewBox="0 0 350 350" fill="none" xmlns="http://www.w3.org/2000/svg">
<rect width="350" height="350" rx="30" fill="#F2FFD8"/>
<g clip-path="url(#clip0_560_46)">
<path d="M85.4258 174.658L85.4258 174.658L85.437 174.664C86.9542 175.524 88.414 176.524 89.7541 177.656C88.4109 176.545 86.9622 175.577 85.4449 174.732C83.5036 173.63 81.4458 172.767 79.3628 172.061L79.3617 172.06C79.3569 172.059 79.3546 172.057 79.3527 172.056C79.3501 172.054 79.346 172.05 79.3417 172.043C79.3329 172.029 79.3292 172.013 79.3297 171.999C79.7299 168.677 78.3596 164.707 74.8514 163.211C72.3095 162.078 69.3582 162.754 67.2362 163.903L67.9455 165.213L67.2362 163.903C66.4722 164.316 65.7414 164.796 65.0467 165.314L65.0365 165.322L65.0265 165.329C65.0247 165.331 65.0238 165.331 65.0237 165.331L65.0237 165.331C65.024 165.331 65.0231 165.332 65.0209 165.332C65.0185 165.331 65.0162 165.331 65.0145 165.33C65.0141 165.33 65.0139 165.33 65.0137 165.33C63.8319 164.404 62.4784 163.558 60.9647 163.041C60.8601 163.004 60.7555 162.968 60.651 162.934C61.4441 163.159 62.2479 163.497 63.045 163.956L63.0543 163.961L63.0636 163.967C63.4347 164.173 63.7971 164.399 64.1567 164.642L65.0085 165.216L65.8519 164.63C68.6463 162.686 72.0224 161.818 74.8714 163.048L74.8848 163.054L74.8984 163.059C77.802 164.246 79.5328 167.545 79.4875 170.909L79.4734 171.961L80.4583 172.332C82.1766 172.98 83.8439 173.743 85.4258 174.658Z" fill="#14521A" stroke="#14521A" stroke-width="3"/>
<path d="M97.9325 157.817L97.9321 157.815C97.8415 157.224 97.6937 156.957 97.6095 156.848C97.5469 156.768 97.4874 156.728 97.3706 156.7L96.4462 156.473L96.2574 155.54C95.2486 150.555 91.5922 146.058 86.0268 142.773C80.4719 139.495 73.1236 137.5 65.0222 137.5C56.9335 137.5 49.3765 139.618 43.6923 143.085C37.9926 146.561 34.3237 151.29 33.6273 156.477L33.6268 156.481C33.5439 157.088 33.5 157.718 33.5 158.356C33.5 164.479 37.525 170.413 45.0491 174.492C47.1691 175.641 49.5093 176.607 52.0122 177.357L52.5447 177.517L52.8445 177.985C55.2163 181.69 59.3642 185.012 65.0125 187.534L65.014 187.534L65.0164 187.535L65.0171 187.535C65.0171 187.535 65.0178 187.536 65.0197 187.536L65.0218 187.535L65.0224 187.535L65.0229 187.535L65.025 187.534L65.0262 187.534C70.3586 185.15 74.2476 182.161 76.6988 178.714L97.9325 157.817ZM97.9325 157.817C98.0761 158.744 98.0034 159.961 97.7355 160.94C97.6064 161.413 97.4528 161.752 97.3158 161.956C97.1267 161.805 96.8817 161.532 96.6195 161.127C96.0711 160.278 95.6361 159.144 95.4934 158.216C95.4124 157.684 95.4533 157.384 95.4986 157.232C95.5363 157.106 95.5841 157.052 95.6424 157.006L96.374 156.432L96.1849 155.521C95.09 150.25 91.1481 145.762 85.6562 142.627C80.1481 139.483 72.9518 137.613 65.0222 137.613C57.0807 137.613 49.6825 139.602 44.0568 142.918C38.4549 146.22 34.436 150.957 33.6884 156.506L33.6881 156.508C33.608 157.108 33.565 157.727 33.565 158.358C33.565 164.764 37.976 170.545 45.0634 174.388L45.0639 174.388C47.3512 175.627 49.8774 176.642 52.5714 177.409L52.5736 177.41C52.5745 177.41 52.5837 177.414 52.5922 177.428C54.9019 181.319 59.0261 184.632 64.3829 187.131L65.0174 187.427M97.9325 157.817L65.0174 187.427M65.6383 188.903C65.4415 188.991 65.2319 189.036 65.0197 189.036C64.8076 189.036 64.598 188.991 64.401 188.903C58.5727 186.301 54.1555 182.815 51.5812 178.794L65.6383 188.903ZM65.6383 188.903C71.1395 186.444 75.2731 183.308 77.9214 179.583L65.6383 188.903ZM65.0174 187.427L65.6519 187.131L65.0174 187.427ZM76.7103 178.66C76.7084 178.649 76.7048 178.64 76.7011 178.634L76.7103 178.66ZM76.7103 178.66C76.7139 178.683 76.7087 178.7 76.6988 178.714L76.7103 178.66ZM52.9821 175.967C50.3849 175.227 47.9616 174.252 45.7785 173.069C38.971 169.378 35.065 164.016 35.065 158.358L52.9821 175.967ZM52.9821 175.967C53.3578 176.073 53.68 176.322 53.8819 176.662L52.9821 175.967ZM97.1893 162.11C97.1893 162.11 97.1913 162.108 97.1953 162.105C97.1914 162.109 97.1893 162.11 97.1893 162.11ZM97.4752 162.062C97.48 162.064 97.4825 162.065 97.4825 162.065C97.4826 162.065 97.4801 162.064 97.4752 162.062ZM76.6814 178.615C76.6821 178.616 76.6842 178.617 76.6877 178.619L75.4315 177.762L76.654 178.631C76.6541 178.631 76.6541 178.631 76.6542 178.631C76.6604 178.622 76.6647 178.619 76.6662 178.618C76.6687 178.617 76.6715 178.616 76.6746 178.615C76.6777 178.614 76.6795 178.615 76.6801 178.615L76.6814 178.615Z" fill="#14521A" stroke="#14521A" stroke-width="3"/>
<path d="M306.737 212.767C304.773 212.767 303.005 212.438 301.43 211.781C299.87 211.11 298.577 210.163 297.549 208.941C296.535 207.718 295.872 206.265 295.559 204.582L298.486 204.089C298.953 205.93 299.942 207.376 301.451 208.428C302.959 209.467 304.76 209.986 306.855 209.986C308.232 209.986 309.468 209.769 310.56 209.335C311.652 208.888 312.511 208.257 313.136 207.442C313.759 206.627 314.071 205.661 314.071 204.543C314.071 203.807 313.942 203.182 313.682 202.669C313.421 202.144 313.077 201.71 312.648 201.368C312.218 201.026 311.75 200.743 311.243 200.52C310.736 200.283 310.242 200.093 309.76 199.948L302.641 197.798C301.781 197.549 300.989 197.233 300.26 196.852C299.533 196.458 298.895 195.991 298.349 195.452C297.815 194.9 297.399 194.255 297.1 193.519C296.801 192.783 296.651 191.941 296.651 190.995C296.651 189.391 297.069 188.004 297.9 186.834C298.733 185.664 299.87 184.763 301.314 184.132C302.758 183.501 304.403 183.192 306.248 183.205C308.122 183.205 309.793 183.54 311.262 184.211C312.745 184.881 313.967 185.841 314.929 187.09C315.893 188.326 316.529 189.792 316.842 191.488L313.838 192.04C313.643 190.804 313.194 189.733 312.492 188.825C311.789 187.918 310.892 187.222 309.799 186.735C308.721 186.236 307.53 185.979 306.23 185.966C304.968 185.966 303.844 186.183 302.855 186.617C301.879 187.037 301.106 187.616 300.534 188.352C299.961 189.088 299.675 189.93 299.675 190.877C299.675 191.836 299.936 192.605 300.456 193.184C300.989 193.762 301.64 194.216 302.406 194.545C303.186 194.873 303.94 195.143 304.669 195.353L310.171 196.99C310.742 197.148 311.412 197.378 312.18 197.68C312.959 197.969 313.714 198.39 314.443 198.942C315.184 199.481 315.795 200.191 316.275 201.072C316.757 201.953 316.998 203.07 316.998 204.425C316.998 205.739 316.737 206.916 316.217 207.955C315.71 208.993 314.989 209.868 314.052 210.578C313.129 211.288 312.043 211.827 310.794 212.195C309.558 212.576 308.206 212.767 306.737 212.767Z" fill="#14521A"/>
<path d="M272.27 212.176V183.778H283.115C283.388 183.778 283.693 183.791 284.032 183.817C284.383 183.83 284.734 183.87 285.085 183.936C286.554 184.159 287.797 184.678 288.811 185.494C289.839 186.295 290.612 187.308 291.133 188.53C291.665 189.753 291.933 191.107 291.933 192.593C291.933 194.065 291.665 195.413 291.133 196.636C290.599 197.858 289.818 198.877 288.792 199.693C287.778 200.495 286.542 201.007 285.085 201.231C284.734 201.283 284.383 201.323 284.032 201.349C283.693 201.375 283.388 201.388 283.115 201.388H275.137V212.176H272.27ZM275.137 198.628H283.037C283.271 198.628 283.544 198.614 283.857 198.588C284.169 198.562 284.474 198.516 284.773 198.45C285.735 198.24 286.523 197.839 287.134 197.247C287.757 196.655 288.22 195.952 288.519 195.137C288.831 194.322 288.987 193.474 288.987 192.593C288.987 191.712 288.831 190.864 288.519 190.049C288.22 189.221 287.757 188.511 287.134 187.919C286.523 187.327 285.735 186.926 284.773 186.716C284.474 186.65 284.169 186.611 283.857 186.598C283.544 186.572 283.271 186.558 283.037 186.558H275.137V198.628Z" fill="#14521A"/>
<path d="M254.669 212.767C252.525 212.767 250.626 212.32 248.974 211.426C247.335 210.532 246.048 209.27 245.112 207.64C244.175 206.01 243.707 204.103 243.707 201.921V183.798L246.593 183.778V201.546C246.593 203.019 246.84 204.294 247.335 205.372C247.829 206.437 248.473 207.318 249.267 208.015C250.073 208.698 250.95 209.204 251.9 209.533C252.849 209.862 253.773 210.026 254.669 210.026C255.581 210.026 256.51 209.862 257.459 209.533C258.409 209.204 259.28 208.698 260.073 208.015C260.867 207.318 261.511 206.437 262.005 205.372C262.498 204.294 262.745 203.019 262.745 201.546V183.778H265.633V201.921C265.633 204.103 265.165 206.01 264.229 207.64C263.292 209.257 261.997 210.519 260.347 211.426C258.708 212.32 256.815 212.767 254.669 212.767Z" fill="#14521A"/>
<path d="M226.729 212.176V186.558H216.918V183.778H239.409V186.558H229.597V212.176H226.729Z" fill="#14521A"/>
<path d="M193.473 212.176V183.778H204.318C204.592 183.778 204.898 183.791 205.236 183.817C205.588 183.83 205.939 183.87 206.29 183.936C207.759 184.159 209.001 184.678 210.015 185.494C211.042 186.295 211.817 187.308 212.336 188.53C212.87 189.753 213.136 191.107 213.136 192.593C213.136 194.736 212.577 196.596 211.459 198.174C210.34 199.752 208.741 200.744 206.66 201.152L205.665 201.388H196.34V212.176H193.473ZM210.483 212.176L204.944 200.619L207.694 199.554L213.78 212.176H210.483ZM196.34 198.628H204.241C204.476 198.628 204.748 198.614 205.06 198.588C205.372 198.562 205.679 198.516 205.976 198.45C206.94 198.24 207.726 197.839 208.338 197.247C208.962 196.655 209.423 195.952 209.722 195.137C210.034 194.322 210.19 193.474 210.19 192.593C210.19 191.712 210.034 190.864 209.722 190.049C209.423 189.221 208.962 188.511 208.338 187.919C207.726 187.327 206.94 186.926 205.976 186.716C205.679 186.65 205.372 186.611 205.06 186.598C204.748 186.572 204.476 186.558 204.241 186.558H196.34V198.628Z" fill="#14521A"/>
<path d="M165.629 212.176L175.304 183.778H179.108L188.784 212.176H185.799L176.611 185.395H177.743L168.614 212.176H165.629ZM169.94 205.293V202.572H184.453V205.293H169.94Z" fill="#14521A"/>
<path d="M151.363 212.176V186.558H141.551V183.778H164.042V186.558H154.23V212.176H151.363Z" fill="#14521A"/>
<path d="M128.435 212.767C126.472 212.767 124.703 212.438 123.129 211.781C121.569 211.11 120.275 210.163 119.247 208.941C118.233 207.718 117.57 206.265 117.258 204.582L120.184 204.089C120.652 205.93 121.64 207.376 123.149 208.428C124.657 209.467 126.459 209.986 128.552 209.986C129.931 209.986 131.166 209.769 132.259 209.335C133.351 208.888 134.209 208.257 134.834 207.442C135.458 206.627 135.77 205.661 135.77 204.543C135.77 203.807 135.64 203.182 135.38 202.669C135.12 202.144 134.775 201.71 134.346 201.368C133.917 201.026 133.449 200.743 132.941 200.52C132.434 200.283 131.94 200.093 131.459 199.948L124.339 197.798C123.481 197.549 122.687 197.233 121.959 196.852C121.231 196.458 120.593 195.991 120.047 195.452C119.514 194.9 119.098 194.255 118.799 193.519C118.5 192.783 118.35 191.941 118.35 190.995C118.35 189.391 118.766 188.004 119.599 186.834C120.431 185.664 121.569 184.763 123.012 184.132C124.456 183.501 126.101 183.192 127.948 183.205C129.82 183.205 131.491 183.54 132.961 184.211C134.443 184.881 135.666 185.841 136.628 187.09C137.591 188.326 138.228 189.792 138.54 191.488L135.536 192.04C135.341 190.804 134.892 189.733 134.19 188.825C133.488 187.918 132.59 187.222 131.498 186.735C130.419 186.236 129.229 185.979 127.928 185.966C126.667 185.966 125.542 186.183 124.553 186.617C123.578 187.037 122.804 187.616 122.232 188.352C121.66 189.088 121.374 189.93 121.374 190.877C121.374 191.836 121.634 192.605 122.154 193.184C122.687 193.762 123.337 194.216 124.105 194.545C124.885 194.873 125.639 195.143 126.368 195.353L131.869 196.99C132.441 197.148 133.111 197.378 133.878 197.68C134.658 197.969 135.412 198.39 136.141 198.942C136.882 199.481 137.493 200.191 137.974 201.072C138.456 201.953 138.696 203.07 138.696 204.425C138.696 205.739 138.436 206.916 137.916 207.955C137.409 208.993 136.687 209.868 135.751 210.578C134.827 211.288 133.741 211.827 132.493 212.195C131.257 212.576 129.905 212.767 128.435 212.767Z" fill="#14521A"/>
<path d="M247.324 164.989V136.591H255.849C256.148 136.591 256.655 136.598 257.37 136.611C258.099 136.624 258.793 136.677 259.458 136.769C261.59 137.071 263.372 137.873 264.802 139.175C266.233 140.476 267.306 142.133 268.021 144.144C268.735 146.156 269.094 148.371 269.094 150.79C269.094 153.209 268.735 155.425 268.021 157.436C267.306 159.448 266.233 161.104 264.802 162.406C263.372 163.707 261.59 164.509 259.458 164.812C258.808 164.891 258.112 164.943 257.37 164.969C256.628 164.983 256.121 164.989 255.849 164.989H247.324ZM250.289 162.209H255.849C256.381 162.209 256.954 162.196 257.565 162.169C258.189 162.13 258.723 162.064 259.165 161.972C260.803 161.683 262.124 161.012 263.125 159.96C264.139 158.909 264.881 157.594 265.349 156.016C265.816 154.425 266.051 152.684 266.051 150.79C266.051 148.884 265.816 147.135 265.349 145.545C264.881 143.954 264.139 142.639 263.125 141.6C262.11 140.562 260.79 139.898 259.165 139.609C258.723 139.517 258.183 139.457 257.546 139.431C256.921 139.392 256.356 139.372 255.849 139.372H250.289V162.209Z" fill="#14521A"/>
<path d="M223.906 164.989V136.591H241.463V139.372H226.774V149.193H239.121V151.974H226.774V162.209H241.463V164.989H223.906Z" fill="#14521A"/>
<path d="M198.121 164.989V136.591H208.967C209.241 136.591 209.546 136.604 209.885 136.631C210.236 136.644 210.587 136.683 210.938 136.749C212.407 136.973 213.65 137.492 214.664 138.307C215.69 139.109 216.465 140.121 216.985 141.344C217.518 142.567 217.785 143.921 217.785 145.407C217.785 147.55 217.226 149.41 216.108 150.987C214.988 152.565 213.388 153.558 211.308 153.965L210.313 154.202H200.988V164.989H198.121ZM215.131 164.989L209.592 153.433L212.343 152.368L218.429 164.989H215.131ZM200.988 151.441H208.89C209.123 151.441 209.397 151.428 209.708 151.402C210.02 151.375 210.326 151.329 210.625 151.264C211.589 151.053 212.374 150.652 212.985 150.061C213.61 149.469 214.072 148.766 214.371 147.95C214.683 147.135 214.838 146.287 214.838 145.407C214.838 144.526 214.683 143.678 214.371 142.863C214.072 142.034 213.61 141.324 212.985 140.733C212.374 140.141 211.589 139.74 210.625 139.53C210.326 139.464 210.02 139.425 209.708 139.411C209.397 139.385 209.123 139.372 208.89 139.372H200.988V151.441Z" fill="#14521A"/>
<path d="M180.394 165.581C177.598 165.581 175.238 164.957 173.313 163.708C171.388 162.446 169.932 160.704 168.944 158.482C167.955 156.26 167.461 153.696 167.461 150.791C167.461 147.885 167.955 145.321 168.944 143.099C169.932 140.878 171.388 139.142 173.313 137.893C175.238 136.631 177.598 136 180.394 136C183.658 136 186.324 136.848 188.392 138.544C190.459 140.227 191.878 142.488 192.645 145.328L189.719 146.097C189.12 143.849 188.047 142.067 186.5 140.753C184.952 139.438 182.917 138.781 180.394 138.781C178.196 138.781 176.369 139.287 174.913 140.299C173.456 141.311 172.357 142.725 171.616 144.539C170.888 146.34 170.511 148.424 170.485 150.791C170.472 153.157 170.829 155.241 171.558 157.042C172.299 158.843 173.404 160.257 174.874 161.282C176.356 162.294 178.196 162.801 180.394 162.801C182.917 162.801 184.952 162.143 186.5 160.829C188.047 159.501 189.12 157.719 189.719 155.484L192.645 156.253C191.878 159.093 190.459 161.361 188.392 163.057C186.324 164.74 183.658 165.581 180.394 165.581Z" fill="#14521A"/>
<path d="M141.941 164.989L151.617 136.591H155.421L165.096 164.989H162.112L152.924 138.208H154.055L144.926 164.989H141.941ZM146.252 158.107V155.385H160.766V158.107H146.252Z" fill="#14521A"/>
<path d="M128.435 165.581C126.472 165.581 124.703 165.253 123.129 164.595C121.569 163.925 120.275 162.978 119.247 161.756C118.233 160.533 117.57 159.08 117.258 157.397L120.184 156.904C120.652 158.745 121.64 160.191 123.149 161.243C124.657 162.281 126.459 162.801 128.552 162.801C129.931 162.801 131.166 162.584 132.259 162.15C133.351 161.703 134.209 161.072 134.834 160.257C135.458 159.442 135.77 158.475 135.77 157.358C135.77 156.622 135.64 155.997 135.38 155.484C135.12 154.958 134.775 154.525 134.346 154.183C133.917 153.841 133.449 153.558 132.941 153.335C132.434 153.098 131.94 152.908 131.459 152.763L124.339 150.613C123.481 150.364 122.687 150.048 121.959 149.667C121.231 149.272 120.593 148.806 120.047 148.267C119.514 147.714 119.098 147.07 118.799 146.334C118.5 145.598 118.35 144.756 118.35 143.81C118.35 142.206 118.766 140.819 119.599 139.649C120.431 138.478 121.569 137.578 123.012 136.947C124.456 136.316 126.101 136.007 127.948 136.02C129.82 136.02 131.491 136.355 132.961 137.026C134.443 137.696 135.666 138.656 136.628 139.905C137.591 141.141 138.228 142.607 138.54 144.303L135.536 144.855C135.341 143.619 134.892 142.548 134.19 141.64C133.488 140.733 132.59 140.036 131.498 139.55C130.419 139.05 129.229 138.794 127.928 138.781C126.667 138.781 125.542 138.998 124.553 139.432C123.578 139.852 122.804 140.431 122.232 141.167C121.66 141.903 121.374 142.745 121.374 143.691C121.374 144.651 121.634 145.42 122.154 145.999C122.687 146.577 123.337 147.031 124.105 147.359C124.885 147.688 125.639 147.958 126.368 148.168L131.869 149.805C132.441 149.963 133.111 150.193 133.878 150.495C134.658 150.784 135.412 151.205 136.141 151.757C136.882 152.296 137.493 153.006 137.974 153.887C138.456 154.768 138.696 155.885 138.696 157.24C138.696 158.554 138.436 159.731 137.916 160.769C137.409 161.808 136.687 162.682 135.751 163.392C134.827 164.102 133.741 164.641 132.493 165.01C131.257 165.391 129.905 165.581 128.435 165.581Z" fill="#14521A"/>
</g>
<defs>
<clipPath id="clip0_560_46">
<rect width="285" height="78" fill="white" transform="translate(32 136)"/>
</clipPath>
</defs>
</svg>
